<?xml version="1.0" encoding="utf-8"?>
<!-- Generator: Adobe Illustrator 24.1.2, SVG Export Plug-In . SVG Version: 6.00 Build 0)  -->
<svg version="1.1" id="Layer_1" xmlns="http://www.w3.org/2000/svg" xmlns:xlink="http://www.w3.org/1999/xlink" x="0px" y="0px"
	 viewBox="0 0 32 32" style="enable-background:new 0 0 32 32;" xml:space="preserve">
<style type="text/css">
	.Blue{fill:#1177D7;}
	.Red{fill:#D11C1C;}
	.st0{fill:#1177D7;}
</style>
<path class="Blue" d="M7.8,26.6c1.7-1.4,3.9-2.4,6.2-2.6v-2H6C6.1,23.7,6.8,25.3,7.8,26.6z"/>
<path class="Red" d="M23.2,3c0,0-2.8,2.3-4.6,0c-1.8-2.2-4.5-0.1-4.6,0l-2,0.6l2.8,8.1l1.6,4.3l1.9-0.7L16.8,11
	c0.1-0.1,2.8-2.2,4.6,0c1.8,2.3,4.6,0,4.6,0L23.2,3z"/>
<path class="Blue" d="M6,20h7.1H14v-2c-2.3-0.2-4.4-1.2-6.1-2.6C6.9,16.7,6.2,18.3,6,20z"/>
<path class="Blue" d="M12.6,12.4c-1.2,0.3-2.3,0.9-3.2,1.6c1.3,1.1,2.8,1.7,4.6,1.9L12.6,12.4z"/>
<path class="Blue" d="M22.2,15.4c-1.7,1.4-3.9,2.4-6.2,2.6v2h8C23.9,18.3,23.2,16.7,22.2,15.4z"/>
<path class="st0" d="M14.1,15.9C14.1,15.9,14.1,15.9,14.1,15.9L14.1,15.9L14.1,15.9z"/>
<path class="Blue" d="M9,28c1.3-1.1,3.2-1.8,5-2v4C12.2,29.7,10.3,29.1,9,28z"/>
<path class="Blue" d="M24,22h-8v2c2.3,0.2,4.5,1.2,6.2,2.6C23.2,25.3,23.9,23.7,24,22z"/>
<path class="Blue" d="M16,30v-4c1.8,0.2,3.7,0.9,5,2C19.7,29.1,17.8,29.7,16,30z"/>
</svg>
