<?xml version="1.0" encoding="utf-8"?>
<!-- Generator: Adobe Illustrator 24.1.2, SVG Export Plug-In . SVG Version: 6.00 Build 0)  -->
<svg version="1.1" id="Layer_1" xmlns="http://www.w3.org/2000/svg" xmlns:xlink="http://www.w3.org/1999/xlink" x="0px" y="0px"
	 viewBox="0 0 32 32" style="enable-background:new 0 0 32 32;" xml:space="preserve">
<style type="text/css">
	.Black{fill:#727272;}
	.Yellow{fill:#FFB115;}
	.st0{fill:none;}
</style>
<path class="st0" d="M11,10c1.7,0,3,1.3,3,3s-1.3,3-3,3s-3-1.3-3-3S9.3,10,11,10z M7.8,16.8c0.9,0.7,2,1.2,3.2,1.2s2.3-0.5,3.2-1.2
	C16,18.5,16,22,16,22H6C6,22,6,18.5,7.8,16.8z"/>
<polygon class="Black" points="18,18 26,18 26,16 23.4,16 18,16 "/>
<rect x="18" y="12" class="Black" width="6" height="2"/>
<circle class="Black" cx="11" cy="13" r="3"/>
<path class="Black" d="M28,24H4V8h16.6l1-1l-1-1H3C2.4,6,2,6.5,2,7v18c0,0.5,0.4,1,1,1h26c0.6,0,1-0.5,1-1v-9l-2-2V24z"/>
<path class="Black" d="M14.2,16.8c-0.9,0.7-2,1.2-3.2,1.2s-2.3-0.5-3.2-1.2C6,18.5,6,22,6,22h10C16,22,16,18.5,14.2,16.8z"/>
<polygon class="Yellow" points="27,4 29,2 29,5 32,5 30,7 32,9 29,9 29,12 27,10 25,12 25,9 22,9 24,7 22,5 25,5 25,2 "/>
</svg>
