<?xml version="1.0" encoding="utf-8"?>
<!-- Generator: Adobe Illustrator 24.1.2, SVG Export Plug-In . SVG Version: 6.00 Build 0)  -->
<svg version="1.1" id="Layer_1" xmlns="http://www.w3.org/2000/svg" xmlns:xlink="http://www.w3.org/1999/xlink" x="0px" y="0px"
	 viewBox="0 0 32 32" style="enable-background:new 0 0 32 32;" xml:space="preserve">
<style type="text/css">
	.Black{fill:#727272;}
	.Blue{fill:#1177D7;}
	.st0{fill:#1177D7;}
</style>
<path class="Black" d="M531,80h-24c-0.6,0-1,0.4-1,1v22c0,0.6,0.4,1,1,1h30c0.6,0,1-0.4,1-1V87L531,80z M536,102h-28V82h22v5
	c0,0.6,0.4,1,1,1h5V102z"/>
<path class="st0" d="M465,127l-8,8l-4-4l8-8L465,127z M466,126l1.7-1.7c0.4-0.4,0.4-1,0-1.3l-2.7-2.7c-0.4-0.4-1-0.4-1.3,0L462,122
	L466,126z M452,132v4h4L452,132z"/>
<path class="Blue" d="M16,2C8.3,2,2,8.3,2,16s6.3,14,14,14s14-6.3,14-14S23.7,2,16,2z M16,24c-1.1,0-2-0.9-2-2s0.9-2,2-2s2,0.9,2,2
	S17.1,24,16,24z M18.9,15.1c-2,1-1.6,2.9-1.6,2.9h-2.7v-0.9c0-2.2,2.4-2.8,3.1-4.3c0.1-0.2,0.8-2.6-1.6-2.6c-2,0-2.1,2.5-2.1,2.8h-3
	c0-0.7,0-5,4.9-5c4.9,0,5.1,3.3,5.1,3.7C21,13.4,19.8,14.6,18.9,15.1z"/>
</svg>
