<?xml version="1.0" encoding="utf-8"?>
<!-- Generator: Adobe Illustrator 24.1.2, SVG Export Plug-In . SVG Version: 6.00 Build 0)  -->
<svg version="1.1" id="Layer_1" xmlns="http://www.w3.org/2000/svg" xmlns:xlink="http://www.w3.org/1999/xlink" x="0px" y="0px"
	 viewBox="0 0 32 32" style="enable-background:new 0 0 32 32;" xml:space="preserve">
<style type="text/css">
	.Yellow{fill:#FFB115;}
	.Black{fill:#727272;}
	.Green{fill:#039C23;}
	.Blue{fill:#1177D7;}
	.st0{fill:#1177D7;}
</style>
<path class="st0" d="M465,127l-8,8l-4-4l8-8L465,127z M466,126l1.7-1.7c0.4-0.4,0.4-1,0-1.3l-2.7-2.7c-0.4-0.4-1-0.4-1.3,0L462,122
	L466,126z M452,132v4h4L452,132z"/>
<path class="Black" d="M20,4V3c0-0.6-0.4-1-1-1h-6c-0.6,0-1,0.4-1,1v1h-2v3c0,0.6,0.4,1,1,1h10c0.6,0,1-0.4,1-1V4H20z"/>
<polygon class="Green" points="20,12 14,18 12,16 10,18 12,20 14,22 16,20 22,14 "/>
<path class="Blue" d="M29,23l-8,8l-4-4l8-8L29,23z M30,22l1.7-1.7c0.4-0.4,0.4-1,0-1.3L29,16.3c-0.4-0.4-1-0.4-1.3,0L26,18L30,22z
	 M16,28v4h4L16,28z"/>
<path class="Yellow" d="M28,12.2V4.8C28,4.4,27.6,4,27,4h-3v12.7L28,12.2z"/>
<path class="Yellow" d="M8,26V4H5C4.4,4,4,4.4,4,5v24c0,0.6,0.4,1,1,1h7l3.6-4H8z"/>
</svg>
