<?xml version="1.0" encoding="utf-8"?>
<!-- Generator: Adobe Illustrator 24.1.2, SVG Export Plug-In . SVG Version: 6.00 Build 0)  -->
<svg version="1.1" id="Layer_1" xmlns="http://www.w3.org/2000/svg" xmlns:xlink="http://www.w3.org/1999/xlink" x="0px" y="0px"
	 viewBox="0 0 32 32" style="enable-background:new 0 0 32 32;" xml:space="preserve">
<style type="text/css">
	.Blue{fill:#1177D7;}
	.Black{fill:#727272;}
</style>
<path class="Blue" d="M16,22h3.5l-0.6-0.6c-0.6-0.6-0.7-1.4-0.4-2.2c0.3-0.7,1-1.2,1.8-1.2H24v-6L12,4L0,12v15c0,0.5,0.5,1,1,1h13
	v-4C14,22.9,14.9,22,16,22z M12,19.8L2,13.1l10-6.7l10,6.7L12,19.8z"/>
<polygon class="Black" points="26,20 20.3,20 24.3,24 16,24 16,28 24.3,28 20.3,32 26,32 32,26 "/>
</svg>
