<?xml version="1.0" encoding="utf-8"?>
<!-- Generator: Adobe Illustrator 24.1.2, SVG Export Plug-In . SVG Version: 6.00 Build 0)  -->
<svg version="1.1" id="Layer_1" xmlns="http://www.w3.org/2000/svg" xmlns:xlink="http://www.w3.org/1999/xlink" x="0px" y="0px"
	 viewBox="0 0 32 32" style="enable-background:new 0 0 32 32;" xml:space="preserve">
<style type="text/css">
	.Yellow{fill:#FFB115;}
	.Black{fill:#727272;}
	.st0{fill:#1177D7;}
</style>
<path class="Yellow" d="M23,14V9h-5l4-4l-4-3H1.1C0.5,2,0,2.5,0,3.1v27.9C0,31.5,0.5,32,1.1,32h27.9c0.6,0,1.1-0.5,1.1-1.1V14l-3-4
	L23,14z M7,28c-1.7,0-3-1.3-3-3s1.3-3,3-3s3,1.3,3,3S8.7,28,7,28z M14,28c0-5.5-4.5-10-10-10v-4c7.7,0,14,6.3,14,14H14z M22,28
	c0-9.9-8.1-18-18-18V6c12.2,0,22,9.8,22,22H22z"/>
<path class="Black" d="M531,80h-24c-0.6,0-1,0.4-1,1v22c0,0.6,0.4,1,1,1h30c0.6,0,1-0.4,1-1V87L531,80z M536,102h-28V82h22v5
	c0,0.6,0.4,1,1,1h5V102z"/>
<path class="st0" d="M465,127l-8,8l-4-4l8-8L465,127z M466,126l1.7-1.7c0.4-0.4,0.4-1,0-1.3l-2.7-2.7c-0.4-0.4-1-0.4-1.3,0L462,122
	L466,126z M452,132v4h4L452,132z"/>
<polygon class="Yellow" points="27,2 29,0 29,3 32,3 30,5 32,7 29,7 29,10 27,8 25,10 25,7 22,7 24,5 22,3 25,3 25,0 "/>
</svg>
