<?xml version="1.0" encoding="utf-8"?>
<!-- Generator: Adobe Illustrator 24.1.2, SVG Export Plug-In . SVG Version: 6.00 Build 0)  -->
<svg version="1.1" id="Layer_1" xmlns="http://www.w3.org/2000/svg" xmlns:xlink="http://www.w3.org/1999/xlink" x="0px" y="0px"
	 viewBox="0 0 32 32" style="enable-background:new 0 0 32 32;" xml:space="preserve">
<style type="text/css">
	.Blue{fill:#1177D7;}
	.Yellow{fill:#FFB115;}
</style>
<path class="Blue" d="M22.2,9l-1.1-1H5C4.5,8,4,8.5,4,9v0.1L16,16l7-4h-4L22.2,9z"/>
<path class="Blue" d="M24,17v-3.3l-8,4.6L4,11.4V23c0,0.5,0.5,1,1,1h22c0.5,0,1-0.5,1-1v-8.2l-1-1L24,17z"/>
<polygon class="Yellow" points="27,6 29,4 29,7 32,7 30,9 32,11 29,11 29,14 27,12 25,14 25,11 22,11 24,9 22,7 25,7 25,4 "/>
</svg>
