<?xml version="1.0" encoding="utf-8"?>
<!-- Generator: Adobe Illustrator 23.0.3, SVG Export Plug-In . SVG Version: 6.00 Build 0)  -->
<svg version="1.1" id="Layer_1" xmlns="http://www.w3.org/2000/svg" xmlns:xlink="http://www.w3.org/1999/xlink" x="0px" y="0px"
	 viewBox="0 0 32 32" style="enable-background:new 0 0 32 32;" xml:space="preserve">
<style type="text/css">
	.Red{fill:#D11C1C;}
	.Black{fill:#727272;}
	.st0{opacity:0.5;}
</style>
<path class="Red" d="M16,2C8.3,2,2,8.3,2,16s6.3,14,14,14s14-6.3,14-14S23.7,2,16,2z M16,28C9.4,28,4,22.6,4,16S9.4,4,16,4
	c6.6,0,12,5.4,12,12S22.6,28,16,28z"/>
<polygon class="Black" points="18,6 16,6 16,15.2 8.6,22.6 10,24 18,16 18,16 18,16 "/>
<g class="st0">
	<path class="Red" d="M18,16L18,16L18,16l-8,8c1.7,1.3,3.7,2,6,2c5.5,0,10-4.5,10-10H18z"/>
</g>
</svg>
