<?xml version="1.0" encoding="utf-8"?>
<!-- Generator: Adobe Illustrator 24.1.2, SVG Export Plug-In . SVG Version: 6.00 Build 0)  -->
<svg version="1.1" id="Layer_1" xmlns="http://www.w3.org/2000/svg" xmlns:xlink="http://www.w3.org/1999/xlink" x="0px" y="0px"
	 viewBox="0 0 32 32" style="enable-background:new 0 0 32 32;" xml:space="preserve">
<style type="text/css">
	.Black{fill:#727272;}
	.st0{fill:#1177D7;}
</style>
<path class="Black" d="M531,80h-24c-0.6,0-1,0.4-1,1v22c0,0.6,0.4,1,1,1h30c0.6,0,1-0.4,1-1V87L531,80z M536,102h-28V82h22v5
	c0,0.6,0.4,1,1,1h5V102z"/>
<path class="st0" d="M465,127l-8,8l-4-4l8-8L465,127z M466,126l1.7-1.7c0.4-0.4,0.4-1,0-1.3l-2.7-2.7c-0.4-0.4-1-0.4-1.3,0L462,122
	L466,126z M452,132v4h4L452,132z"/>
<path class="Black" d="M4,3v26c0,0.6,0.4,1,1,1h22c0.6,0,1-0.4,1-1V3c0-0.6-0.4-1-1-1H5C4.4,2,4,2.4,4,3z M26,28H6V4h20V28z"/>
</svg>
