<?xml version="1.0" encoding="utf-8"?>
<!-- Generator: Adobe Illustrator 23.0.3, SVG Export Plug-In . SVG Version: 6.00 Build 0)  -->
<svg version="1.1" id="Layer_1" xmlns="http://www.w3.org/2000/svg" xmlns:xlink="http://www.w3.org/1999/xlink" x="0px" y="0px"
	 viewBox="0 0 32 32" style="enable-background:new 0 0 32 32;" xml:space="preserve">
<style type="text/css">
	.Black{fill:#727272;}
</style>
<path class="Black" d="M31,7.8h-3V5c0-0.6-0.4-1-1-1h-7c-1.2,0-2.3,0.5-3,1.4C16.3,4.5,15.2,4,14,4H7C6.4,4,6,4.4,6,5v2.8H3
	c-0.6,0-1,0.4-1,1V27c0,0.6,0.4,1,1,1h28c0.6,0,1-0.4,1-1V8.8C32,8.2,31.6,7.8,31,7.8z M18,8c0-1.1,0.9-2,2-2h6v16h-6
	c-0.7,0-1.4,0.2-2,0.6V8z M8,6h6c1.1,0,2,0.9,2,2v14.6c-0.6-0.3-1.3-0.6-2-0.6H8V6z M4,26V10h2v13c0,0.6,0.4,1,1,1h7
	c1.1,0,2,0.9,2,2H4z M30,26H18c0-1.1,0.9-2,2-2h7c0.6,0,1-0.4,1-1V10h2V26z"/>
<rect x="10" y="8" class="Black" width="4" height="2"/>
<rect x="10" y="12" class="Black" width="4" height="2"/>
<rect x="10" y="16" class="Black" width="4" height="2"/>
<rect x="20" y="16" class="Black" width="4" height="2"/>
<rect x="20" y="12" class="Black" width="4" height="2"/>
<rect x="20" y="8" class="Black" width="4" height="2"/>
</svg>
