<?xml version="1.0" encoding="utf-8"?>
<!-- Generator: Adobe Illustrator 24.1.2, SVG Export Plug-In . SVG Version: 6.00 Build 0)  -->
<svg version="1.1" id="Layer_1" xmlns="http://www.w3.org/2000/svg" xmlns:xlink="http://www.w3.org/1999/xlink" x="0px" y="0px"
	 viewBox="0 0 32 32" style="enable-background:new 0 0 32 32;" xml:space="preserve">
<style type="text/css">
	.Black{fill:#727272;}
	.st0{fill:#1177D7;}
	.st1{opacity:0.5;}
</style>
<path class="Black" d="M531,80h-24c-0.6,0-1,0.4-1,1v22c0,0.6,0.4,1,1,1h30c0.6,0,1-0.4,1-1V87L531,80z M536,102h-28V82h22v5
	c0,0.6,0.4,1,1,1h5V102z"/>
<path class="st0" d="M465,127l-8,8l-4-4l8-8L465,127z M466,126l1.7-1.7c0.4-0.4,0.4-1,0-1.3l-2.7-2.7c-0.4-0.4-1-0.4-1.3,0L462,122
	L466,126z M452,132v4h4L452,132z"/>
<path class="Black" d="M24,2H5C4.4,2,4,2.4,4,3v26c0,0.6,0.4,1,1,1h24c0.6,0,1-0.4,1-1V8L24,2z M28,28H6V4h16v5c0,0.6,0.4,1,1,1h5
	V28z"/>
<g class="st1">
	<path class="Black" d="M8,12v2v10v2h2h14h2v-8v-2v-2v-2H8z M10,18h2v2h-2V18z M10,24v-2h2v2H10z M14,24v-2h2v2H14z M16,20h-2v-2h2
		V20z M18,24v-2h2v2H18z M20,20h-2v-2h2V20z M24,24h-2v-2h2V24z M24,20h-2v-2h2V20z M10,16v-2h14v2H10z"/>
</g>
</svg>
