<?xml version="1.0" encoding="utf-8"?>
<!-- Generator: Adobe Illustrator 24.1.2, SVG Export Plug-In . SVG Version: 6.00 Build 0)  -->
<svg version="1.1" id="Layer_1" xmlns="http://www.w3.org/2000/svg" xmlns:xlink="http://www.w3.org/1999/xlink" x="0px" y="0px"
	 viewBox="0 0 32 32" style="enable-background:new 0 0 32 32;" xml:space="preserve">
<style type="text/css">
	.Black{fill:#727272;}
	.Red{fill:#D11C1C;}
	.st0{fill:#1177D7;}
</style>
<path class="Black" d="M531,80h-24c-0.6,0-1,0.4-1,1v22c0,0.6,0.4,1,1,1h30c0.6,0,1-0.4,1-1V87L531,80z M536,102h-28V82h22v5
	c0,0.6,0.4,1,1,1h5V102z"/>
<path class="st0" d="M465,127l-8,8l-4-4l8-8L465,127z M466,126l1.7-1.7c0.4-0.4,0.4-1,0-1.3l-2.7-2.7c-0.4-0.4-1-0.4-1.3,0L462,122
	L466,126z M452,132v4h4L452,132z"/>
<path class="Red" d="M31,14h-1h-2h-6h-2h-1c-0.5,0-1,0.5-1,1v3h2h10h2v-3C32,14.5,31.5,14,31,14z"/>
<path class="Black" d="M30,18v12H20V18h-2v10H6V4h14v5c0,0.6,0.4,1,1,1h5v4h2V9l-7-7H5C4.4,2,4,2.4,4,3v26c0,0.6,0.4,1,1,1h13v1
	c0,0.5,0.5,1,1,1h12c0.5,0,1-0.5,1-1V18H30z"/>
<polygon class="Black" points="26,28 26,20 25,20 23,21 23,22 24,22 24,28 "/>
<rect x="8" y="10" class="Black" width="8" height="2"/>
<rect x="8" y="14" class="Black" width="8" height="2"/>
<rect x="8" y="18" class="Black" width="8" height="2"/>
</svg>
