<?xml version="1.0" encoding="utf-8"?>
<!-- Generator: Adobe Illustrator 24.1.2, SVG Export Plug-In . SVG Version: 6.00 Build 0)  -->
<svg version="1.1" id="Layer_1" xmlns="http://www.w3.org/2000/svg" xmlns:xlink="http://www.w3.org/1999/xlink" x="0px" y="0px"
	 viewBox="0 0 32 32" style="enable-background:new 0 0 32 32;" xml:space="preserve">
<style type="text/css">
	.Blue{fill:#1177D7;}
	.Black{fill:#727272;}
	.st0{fill:none;}
</style>
<path class="st0" d="M11,14c-1.7,0-3-1.3-3-3s1.3-3,3-3s3,1.3,3,3S12.7,14,11,14z"/>
<polygon class="Black" points="18,14 18,16 20,16 22,14 "/>
<polygon class="Black" points="18,10 18,12 24,12 26,10 "/>
<circle class="Black" cx="11" cy="11" r="3"/>
<path class="Black" d="M4,22V6h24v2l2-2V5c0-0.5-0.4-1-1-1H3C2.4,4,2,4.5,2,5v18c0,0.5,0.4,1,1,1h9l2-2H4z"/>
<path class="Black" d="M11,16c-1.2,0-2.3-0.5-3.2-1.2C6,16.5,6,20,6,20h10c0,0,0-3.5-1.8-5.2C13.3,15.5,12.2,16,11,16z"/>
<path class="Blue" d="M29,19l-8,8l-4-4l8-8L29,19z M30,18l1.7-1.7c0.4-0.4,0.4-1,0-1.3L29,12.3c-0.4-0.4-1-0.4-1.3,0L26,14L30,18z
	 M16,24v4h4L16,24z"/>
</svg>
