<?xml version="1.0" encoding="utf-8"?>
<!-- Generator: Adobe Illustrator 23.0.3, SVG Export Plug-In . SVG Version: 6.00 Build 0)  -->
<svg version="1.1" id="Layer_1" xmlns="http://www.w3.org/2000/svg" xmlns:xlink="http://www.w3.org/1999/xlink" x="0px" y="0px"
	 viewBox="0 0 32 32" style="enable-background:new 0 0 32 32;" xml:space="preserve">
<style type="text/css">
	.Blue{fill:#1177D7;}
	.Black{fill:#727272;}
</style>
<rect x="18" y="14" class="Black" width="8" height="2"/>
<rect x="18" y="10" class="Black" width="8" height="2"/>
<circle class="Black" cx="11" cy="11" r="3"/>
<path class="Black" d="M29,4H3C2.4,4,2,4.5,2,5v18c0,0.5,0.4,1,1,1h26c0.6,0,1-0.5,1-1V5C30,4.5,29.6,4,29,4z M28,22H4V6h24V22z"/>
<path class="Black" d="M14.2,14.8c-0.9,0.7-2,1.2-3.2,1.2s-2.3-0.5-3.2-1.2C6,16.5,6,20,6,20h10C16,20,16,16.5,14.2,14.8z"/>
<path class="Blue" d="M2,22v4c0,1.1,0.9,2,2,2h2c0-1.1,0.9-2,2-2s2,0.9,2,2h12c0-1.1,0.9-2,2-2s2,0.9,2,2h2c1.1,0,2-0.9,2-2v-4H2z"
	/>
</svg>
