<?xml version="1.0" encoding="utf-8"?>
<!-- Generator: Adobe Illustrator 24.1.2, SVG Export Plug-In . SVG Version: 6.00 Build 0)  -->
<svg version="1.1" id="Layer_1" xmlns="http://www.w3.org/2000/svg" xmlns:xlink="http://www.w3.org/1999/xlink" x="0px" y="0px"
	 viewBox="0 0 32 32" style="enable-background:new 0 0 32 32;" xml:space="preserve">
<style type="text/css">
	.Yellow{fill:#FFB115;}
	.Black{fill:#727272;}
	.Blue{fill:#1177D7;}
	.st0{fill:#1177D7;}
</style>
<path class="Yellow" d="M14,28c0-5.5-4.5-10-10-10v-4c6.5,0,12,4.4,13.5,10.5l3.2-3.2C18,14.7,11.6,10,4,10V6
	c8.7,0,16.1,5,19.7,12.3L30,12V3.1C30,2.5,29.5,2,28.9,2H1.1C0.5,2,0,2.5,0,3.1v27.9C0,31.5,0.5,32,1.1,32H10l2-2L14,28z M7,28
	c-1.7,0-3-1.3-3-3s1.3-3,3-3s3,1.3,3,3S8.7,28,7,28z"/>
<path class="Black" d="M531,80h-24c-0.6,0-1,0.4-1,1v22c0,0.6,0.4,1,1,1h30c0.6,0,1-0.4,1-1V87L531,80z M536,102h-28V82h22v5
	c0,0.6,0.4,1,1,1h5V102z"/>
<path class="st0" d="M465,127l-8,8l-4-4l8-8L465,127z M466,126l1.7-1.7c0.4-0.4,0.4-1,0-1.3l-2.7-2.7c-0.4-0.4-1-0.4-1.3,0L462,122
	L466,126z M452,132v4h4L452,132z"/>
<path class="Blue" d="M29,23l-8,8l-4-4l8-8L29,23z M30,22l1.7-1.7c0.4-0.4,0.4-1,0-1.3L29,16.3c-0.4-0.4-1-0.4-1.3,0L26,18L30,22z
	 M16,28v4h4L16,28z"/>
</svg>
