<?xml version="1.0" encoding="utf-8"?>
<!-- Generator: Adobe Illustrator 24.1.2, SVG Export Plug-In . SVG Version: 6.00 Build 0)  -->
<svg version="1.1" id="Layer_1" xmlns="http://www.w3.org/2000/svg" xmlns:xlink="http://www.w3.org/1999/xlink" x="0px" y="0px"
	 viewBox="0 0 32 32" style="enable-background:new 0 0 32 32;" xml:space="preserve">
<style type="text/css">
	.Blue{fill:#1177D7;}
	.Black{fill:#727272;}
</style>
<path class="Black" d="M4,3v26c0,0.6,0.4,1,1,1h22c0.6,0,1-0.4,1-1V3c0-0.6-0.4-1-1-1H5C4.4,2,4,2.4,4,3z M26,28H6V4h20V28z"/>
<path class="Blue" d="M23,18H9c-0.6,0-1,0.4-1,1v6c0,0.6,0.4,1,1,1h14c0.6,0,1-0.4,1-1v-6C24,18.4,23.6,18,23,18z"/>
<rect x="8" y="6" class="Black" width="16" height="2"/>
<rect x="8" y="10" class="Black" width="16" height="2"/>
<rect x="8" y="14" class="Black" width="16" height="2"/>
</svg>
