<?xml version="1.0" encoding="utf-8"?>
<!-- Generator: Adobe Illustrator 24.1.2, SVG Export Plug-In . SVG Version: 6.00 Build 0)  -->
<svg version="1.1" id="Layer_1" xmlns="http://www.w3.org/2000/svg" xmlns:xlink="http://www.w3.org/1999/xlink" x="0px" y="0px"
	 viewBox="0 0 32 32" style="enable-background:new 0 0 32 32;" xml:space="preserve">
<style type="text/css">
	.Blue{fill:#1177D7;}
	.Green{fill:#039C23;}
</style>
<path class="Blue" d="M2,9.1l10-6.7l1.4,0.9l2-1L12,0L0,8v15c0,0.5,0.5,1,1,1h1V9.1z"/>
<path class="Blue" d="M14.7,26.7c-0.4-0.4-0.4-1,0-1.4l6.7-6.7c0.4-0.4,0.9-0.6,1.4-0.6H28v-6L16,4L4,12v15c0,0.5,0.5,1,1,1h11
	L14.7,26.7z M16,6.4l10,6.7l-10,6.7L6,13.1L16,6.4z"/>
<polygon class="Green" points="22,32 27.7,32 23.7,28 32,28 32,24 23.7,24 27.7,20 22,20 16,26 "/>
</svg>
