<?xml version="1.0" encoding="utf-8"?>
<!-- Generator: Adobe Illustrator 24.1.2, SVG Export Plug-In . SVG Version: 6.00 Build 0)  -->
<svg version="1.1" id="Layer_1" xmlns="http://www.w3.org/2000/svg" xmlns:xlink="http://www.w3.org/1999/xlink" x="0px" y="0px"
	 viewBox="0 0 32 32" style="enable-background:new 0 0 32 32;" xml:space="preserve">
<style type="text/css">
	.Black{fill:#727272;}
	.Blue{fill:#1177D7;}
	.st0{fill:#1177D7;}
	.st1{fill:#039C23;}
</style>
<path class="Black" d="M531,80h-24c-0.6,0-1,0.4-1,1v22c0,0.6,0.4,1,1,1h30c0.6,0,1-0.4,1-1V87L531,80z M536,102h-28V82h22v5
	c0,0.6,0.4,1,1,1h5V102z"/>
<path class="st0" d="M465,127l-8,8l-4-4l8-8L465,127z M466,126l1.7-1.7c0.4-0.4,0.4-1,0-1.3l-2.7-2.7c-0.4-0.4-1-0.4-1.3,0L462,122
	L466,126z M452,132v4h4L452,132z"/>
<path class="Blue" d="M3,16h10c0.6,0,1,0.4,1,1v10c0,0.6-0.4,1-1,1H3c-0.6,0-1-0.4-1-1V17C2,16.4,2.4,16,3,16z"/>
<path class="Blue" d="M3,2h10c0.6,0,1,0.4,1,1v10c0,0.6-0.4,1-1,1H3c-0.6,0-1-0.4-1-1V3C2,2.4,2.4,2,3,2z"/>
<path class="Blue" d="M17,2h10c0.6,0,1,0.4,1,1v10c0,0.6-0.4,1-1,1H17c-0.6,0-1-0.4-1-1V3C16,2.4,16.4,2,17,2z"/>
<g id="Update">
	<g>
		<path class="Blue" d="M29.7,22h2H32v-6l-2.3,2.3C28.2,16.9,26.2,16,24,16c-4.4,0-8,3.6-8,8s3.6,8,8,8s8-3.6,8-8h-2
			c0,3.3-2.7,6-6,6s-6-2.7-6-6s2.7-6,6-6c1.7,0,3.2,0.7,4.2,1.8L26,22H29.7z"/>
	</g>
	<g>
		<path class="st1" d="M29.7,22h2H32v-6l-2.3,2.3C28.2,16.9,26.2,16,24,16c-4.4,0-8,3.6-8,8s3.6,8,8,8s8-3.6,8-8h-2c0,3.3-2.7,6-6,6
			s-6-2.7-6-6s2.7-6,6-6c1.7,0,3.2,0.7,4.2,1.8L26,22H29.7z"/>
	</g>
</g>
</svg>
